<mxfile host="Electron" agent="Mozilla/5.0 (Windows NT 10.0; Win64; x64) AppleWebKit/537.36 (KHTML, like Gecko) draw.io/24.7.17 Chrome/128.0.6613.36 Electron/32.0.1 Safari/537.36" version="24.7.17">
  <diagram name="Сторінка-1" id="LYm03Go33UnQ37QgSBPq">
    <mxGraphModel dx="3315" dy="936" grid="1" gridSize="10" guides="1" tooltips="1" connect="1" arrows="1" fold="1" page="1" pageScale="1" pageWidth="1169" pageHeight="827" math="0" shadow="0">
      <root>
        <mxCell id="0" />
        <mxCell id="1" parent="0" />
        <mxCell id="P7qVUv0zWzpbaVaUychk-7" style="edgeStyle=orthogonalEdgeStyle;rounded=0;orthogonalLoop=1;jettySize=auto;html=1;exitX=0;exitY=0;exitDx=0;exitDy=0;entryX=1;entryY=0.5;entryDx=0;entryDy=0;" parent="1" source="P7qVUv0zWzpbaVaUychk-1" target="P7qVUv0zWzpbaVaUychk-2" edge="1">
          <mxGeometry relative="1" as="geometry" />
        </mxCell>
        <mxCell id="P7qVUv0zWzpbaVaUychk-8" style="edgeStyle=orthogonalEdgeStyle;rounded=0;orthogonalLoop=1;jettySize=auto;html=1;exitX=0;exitY=0.25;exitDx=0;exitDy=0;entryX=1;entryY=0.5;entryDx=0;entryDy=0;" parent="1" source="P7qVUv0zWzpbaVaUychk-1" target="P7qVUv0zWzpbaVaUychk-3" edge="1">
          <mxGeometry relative="1" as="geometry" />
        </mxCell>
        <mxCell id="P7qVUv0zWzpbaVaUychk-9" style="edgeStyle=orthogonalEdgeStyle;rounded=0;orthogonalLoop=1;jettySize=auto;html=1;exitX=0;exitY=0.5;exitDx=0;exitDy=0;entryX=1;entryY=0.5;entryDx=0;entryDy=0;" parent="1" source="P7qVUv0zWzpbaVaUychk-1" target="P7qVUv0zWzpbaVaUychk-4" edge="1">
          <mxGeometry relative="1" as="geometry" />
        </mxCell>
        <mxCell id="P7qVUv0zWzpbaVaUychk-10" style="edgeStyle=orthogonalEdgeStyle;rounded=0;orthogonalLoop=1;jettySize=auto;html=1;exitX=0;exitY=0.75;exitDx=0;exitDy=0;entryX=1;entryY=0.5;entryDx=0;entryDy=0;" parent="1" source="P7qVUv0zWzpbaVaUychk-1" target="P7qVUv0zWzpbaVaUychk-5" edge="1">
          <mxGeometry relative="1" as="geometry" />
        </mxCell>
        <mxCell id="P7qVUv0zWzpbaVaUychk-11" style="edgeStyle=orthogonalEdgeStyle;rounded=0;orthogonalLoop=1;jettySize=auto;html=1;exitX=0;exitY=1;exitDx=0;exitDy=0;entryX=1;entryY=0.5;entryDx=0;entryDy=0;" parent="1" source="P7qVUv0zWzpbaVaUychk-1" target="P7qVUv0zWzpbaVaUychk-6" edge="1">
          <mxGeometry relative="1" as="geometry" />
        </mxCell>
        <mxCell id="RcaxxR3kTo5iRy39veyw-25" style="edgeStyle=orthogonalEdgeStyle;rounded=0;orthogonalLoop=1;jettySize=auto;html=1;exitX=0.5;exitY=1;exitDx=0;exitDy=0;entryX=0.5;entryY=0;entryDx=0;entryDy=0;" parent="1" source="P7qVUv0zWzpbaVaUychk-1" target="RcaxxR3kTo5iRy39veyw-24" edge="1">
          <mxGeometry relative="1" as="geometry" />
        </mxCell>
        <mxCell id="P7qVUv0zWzpbaVaUychk-1" value="&lt;font style=&quot;font-size: 18px;&quot;&gt;Proveedores&lt;/font&gt;" style="rounded=1;whiteSpace=wrap;html=1;fillColor=#1ba1e2;fontColor=#ffffff;strokeColor=#006EAF;" parent="1" vertex="1">
          <mxGeometry x="-240" y="455" width="160" height="80" as="geometry" />
        </mxCell>
        <mxCell id="P7qVUv0zWzpbaVaUychk-2" value="RUT(CP)" style="rounded=1;whiteSpace=wrap;html=1;fontStyle=5;fillColor=#e3c800;fontColor=#000000;strokeColor=#B09500;shadow=0;" parent="1" vertex="1">
          <mxGeometry x="-430" y="330" width="140" height="50" as="geometry" />
        </mxCell>
        <mxCell id="P7qVUv0zWzpbaVaUychk-3" value="Nombre" style="rounded=1;whiteSpace=wrap;html=1;fontStyle=0;fillColor=#e3c800;fontColor=#000000;strokeColor=#B09500;shadow=0;" parent="1" vertex="1">
          <mxGeometry x="-430" y="400" width="140" height="50" as="geometry" />
        </mxCell>
        <mxCell id="P7qVUv0zWzpbaVaUychk-4" value="Direccion" style="rounded=1;whiteSpace=wrap;html=1;fontStyle=0;fillColor=#e3c800;fontColor=#000000;strokeColor=#B09500;shadow=0;" parent="1" vertex="1">
          <mxGeometry x="-430" y="470" width="140" height="50" as="geometry" />
        </mxCell>
        <mxCell id="P7qVUv0zWzpbaVaUychk-5" value="Telefono" style="rounded=1;whiteSpace=wrap;html=1;fontStyle=0;fillColor=#e3c800;fontColor=#000000;strokeColor=#B09500;shadow=0;" parent="1" vertex="1">
          <mxGeometry x="-430" y="540" width="140" height="50" as="geometry" />
        </mxCell>
        <mxCell id="P7qVUv0zWzpbaVaUychk-6" value="Pagina WEB" style="rounded=1;whiteSpace=wrap;html=1;fontStyle=0;fillColor=#e3c800;fontColor=#000000;strokeColor=#B09500;shadow=0;" parent="1" vertex="1">
          <mxGeometry x="-430" y="610" width="140" height="50" as="geometry" />
        </mxCell>
        <mxCell id="P7qVUv0zWzpbaVaUychk-18" style="edgeStyle=orthogonalEdgeStyle;rounded=0;orthogonalLoop=1;jettySize=auto;html=1;exitX=1;exitY=0.25;exitDx=0;exitDy=0;entryX=0;entryY=0.5;entryDx=0;entryDy=0;" parent="1" source="P7qVUv0zWzpbaVaUychk-12" target="P7qVUv0zWzpbaVaUychk-13" edge="1">
          <mxGeometry relative="1" as="geometry" />
        </mxCell>
        <mxCell id="P7qVUv0zWzpbaVaUychk-19" style="edgeStyle=orthogonalEdgeStyle;rounded=0;orthogonalLoop=1;jettySize=auto;html=1;exitX=1;exitY=0.75;exitDx=0;exitDy=0;entryX=0;entryY=0.5;entryDx=0;entryDy=0;" parent="1" source="P7qVUv0zWzpbaVaUychk-12" target="P7qVUv0zWzpbaVaUychk-14" edge="1">
          <mxGeometry relative="1" as="geometry" />
        </mxCell>
        <mxCell id="RcaxxR3kTo5iRy39veyw-13" style="edgeStyle=orthogonalEdgeStyle;rounded=0;orthogonalLoop=1;jettySize=auto;html=1;exitX=0.5;exitY=0;exitDx=0;exitDy=0;entryX=0.5;entryY=1;entryDx=0;entryDy=0;" parent="1" source="P7qVUv0zWzpbaVaUychk-12" target="RcaxxR3kTo5iRy39veyw-11" edge="1">
          <mxGeometry relative="1" as="geometry" />
        </mxCell>
        <mxCell id="P7qVUv0zWzpbaVaUychk-12" value="&lt;font style=&quot;font-size: 18px;&quot;&gt;Clientes&lt;/font&gt;" style="rounded=1;whiteSpace=wrap;html=1;fillColor=#1ba1e2;fontColor=#ffffff;strokeColor=#006EAF;" parent="1" vertex="1">
          <mxGeometry x="-169.75" y="2320" width="160" height="80" as="geometry" />
        </mxCell>
        <mxCell id="P7qVUv0zWzpbaVaUychk-13" value="RUT(CP)" style="rounded=1;whiteSpace=wrap;html=1;fontStyle=5;fillColor=#e3c800;fontColor=#000000;strokeColor=#B09500;" parent="1" vertex="1">
          <mxGeometry x="40.25" y="2300" width="140" height="50" as="geometry" />
        </mxCell>
        <mxCell id="P7qVUv0zWzpbaVaUychk-14" value="Nombre" style="rounded=1;whiteSpace=wrap;html=1;fontStyle=0;fillColor=#e3c800;fontColor=#000000;strokeColor=#B09500;" parent="1" vertex="1">
          <mxGeometry x="40.25" y="2370" width="140" height="50" as="geometry" />
        </mxCell>
        <mxCell id="P7qVUv0zWzpbaVaUychk-20" style="edgeStyle=orthogonalEdgeStyle;rounded=0;orthogonalLoop=1;jettySize=auto;html=1;exitX=0;exitY=0;exitDx=0;exitDy=0;entryX=1;entryY=0.5;entryDx=0;entryDy=0;" parent="1" source="P7qVUv0zWzpbaVaUychk-25" target="P7qVUv0zWzpbaVaUychk-26" edge="1">
          <mxGeometry relative="1" as="geometry" />
        </mxCell>
        <mxCell id="P7qVUv0zWzpbaVaUychk-21" style="edgeStyle=orthogonalEdgeStyle;rounded=0;orthogonalLoop=1;jettySize=auto;html=1;exitX=0;exitY=0.25;exitDx=0;exitDy=0;entryX=1;entryY=0.5;entryDx=0;entryDy=0;" parent="1" source="P7qVUv0zWzpbaVaUychk-25" target="P7qVUv0zWzpbaVaUychk-27" edge="1">
          <mxGeometry relative="1" as="geometry" />
        </mxCell>
        <mxCell id="P7qVUv0zWzpbaVaUychk-22" style="edgeStyle=orthogonalEdgeStyle;rounded=0;orthogonalLoop=1;jettySize=auto;html=1;exitX=0;exitY=0.5;exitDx=0;exitDy=0;entryX=1;entryY=0.5;entryDx=0;entryDy=0;" parent="1" source="P7qVUv0zWzpbaVaUychk-25" target="P7qVUv0zWzpbaVaUychk-28" edge="1">
          <mxGeometry relative="1" as="geometry" />
        </mxCell>
        <mxCell id="P7qVUv0zWzpbaVaUychk-23" style="edgeStyle=orthogonalEdgeStyle;rounded=0;orthogonalLoop=1;jettySize=auto;html=1;exitX=0;exitY=0.75;exitDx=0;exitDy=0;entryX=1;entryY=0.5;entryDx=0;entryDy=0;" parent="1" source="P7qVUv0zWzpbaVaUychk-25" target="P7qVUv0zWzpbaVaUychk-29" edge="1">
          <mxGeometry relative="1" as="geometry">
            <Array as="points">
              <mxPoint x="-370" y="2735" />
              <mxPoint x="-370" y="2835" />
            </Array>
          </mxGeometry>
        </mxCell>
        <mxCell id="P7qVUv0zWzpbaVaUychk-24" style="edgeStyle=orthogonalEdgeStyle;rounded=0;orthogonalLoop=1;jettySize=auto;html=1;exitX=0;exitY=1;exitDx=0;exitDy=0;entryX=1;entryY=0.5;entryDx=0;entryDy=0;" parent="1" source="P7qVUv0zWzpbaVaUychk-25" target="P7qVUv0zWzpbaVaUychk-30" edge="1">
          <mxGeometry relative="1" as="geometry" />
        </mxCell>
        <mxCell id="P7qVUv0zWzpbaVaUychk-32" style="edgeStyle=orthogonalEdgeStyle;rounded=0;orthogonalLoop=1;jettySize=auto;html=1;exitX=0.25;exitY=1;exitDx=0;exitDy=0;entryX=1;entryY=0.5;entryDx=0;entryDy=0;" parent="1" source="P7qVUv0zWzpbaVaUychk-25" target="P7qVUv0zWzpbaVaUychk-31" edge="1">
          <mxGeometry relative="1" as="geometry" />
        </mxCell>
        <mxCell id="P7qVUv0zWzpbaVaUychk-96" style="edgeStyle=orthogonalEdgeStyle;rounded=0;orthogonalLoop=1;jettySize=auto;html=1;exitX=0.75;exitY=0;exitDx=0;exitDy=0;entryX=0.5;entryY=1;entryDx=0;entryDy=0;" parent="1" source="P7qVUv0zWzpbaVaUychk-25" target="P7qVUv0zWzpbaVaUychk-95" edge="1">
          <mxGeometry relative="1" as="geometry" />
        </mxCell>
        <mxCell id="P7qVUv0zWzpbaVaUychk-25" value="&lt;font style=&quot;font-size: 18px;&quot;&gt;Teléfono&lt;/font&gt;" style="rounded=1;whiteSpace=wrap;html=1;fillColor=#1ba1e2;fontColor=#ffffff;strokeColor=#006EAF;" parent="1" vertex="1">
          <mxGeometry x="-360" y="2675" width="160" height="80" as="geometry" />
        </mxCell>
        <mxCell id="P7qVUv0zWzpbaVaUychk-26" value="ID(CP)" style="rounded=1;whiteSpace=wrap;html=1;fontStyle=5;fillColor=#e3c800;fontColor=#000000;strokeColor=#B09500;shadow=0;" parent="1" vertex="1">
          <mxGeometry x="-550" y="2600" width="140" height="50" as="geometry" />
        </mxCell>
        <mxCell id="P7qVUv0zWzpbaVaUychk-27" value="&lt;b&gt;RUT_cliente(CF)&lt;/b&gt;" style="rounded=1;whiteSpace=wrap;html=1;fontStyle=0;fillColor=#e3c800;fontColor=#000000;strokeColor=#B09500;shadow=0;" parent="1" vertex="1">
          <mxGeometry x="-550" y="2670" width="140" height="50" as="geometry" />
        </mxCell>
        <mxCell id="P7qVUv0zWzpbaVaUychk-28" value="Identificador de país" style="rounded=1;whiteSpace=wrap;html=1;fontStyle=0;fillColor=#e3c800;fontColor=#000000;strokeColor=#B09500;shadow=0;" parent="1" vertex="1">
          <mxGeometry x="-550" y="2740" width="140" height="50" as="geometry" />
        </mxCell>
        <mxCell id="P7qVUv0zWzpbaVaUychk-29" value="Numero de telefono" style="rounded=1;whiteSpace=wrap;html=1;fontStyle=0;fillColor=#e3c800;fontColor=#000000;strokeColor=#B09500;shadow=0;" parent="1" vertex="1">
          <mxGeometry x="-550" y="2810" width="140" height="50" as="geometry" />
        </mxCell>
        <mxCell id="P7qVUv0zWzpbaVaUychk-30" value="Tipo" style="rounded=1;whiteSpace=wrap;html=1;fontStyle=0;fillColor=#e3c800;fontColor=#000000;strokeColor=#B09500;shadow=0;" parent="1" vertex="1">
          <mxGeometry x="-550" y="2880" width="140" height="50" as="geometry" />
        </mxCell>
        <mxCell id="P7qVUv0zWzpbaVaUychk-31" value="Prioridad" style="rounded=1;whiteSpace=wrap;html=1;fontStyle=0;fillColor=#e3c800;fontColor=#000000;strokeColor=#B09500;shadow=0;" parent="1" vertex="1">
          <mxGeometry x="-550" y="2950" width="140" height="50" as="geometry" />
        </mxCell>
        <mxCell id="P7qVUv0zWzpbaVaUychk-48" style="edgeStyle=orthogonalEdgeStyle;rounded=0;orthogonalLoop=1;jettySize=auto;html=1;exitX=1;exitY=0.25;exitDx=0;exitDy=0;entryX=0;entryY=0.5;entryDx=0;entryDy=0;" parent="1" source="P7qVUv0zWzpbaVaUychk-39" target="P7qVUv0zWzpbaVaUychk-43" edge="1">
          <mxGeometry relative="1" as="geometry" />
        </mxCell>
        <mxCell id="P7qVUv0zWzpbaVaUychk-49" style="edgeStyle=orthogonalEdgeStyle;rounded=0;orthogonalLoop=1;jettySize=auto;html=1;exitX=1;exitY=0;exitDx=0;exitDy=0;entryX=0;entryY=0.5;entryDx=0;entryDy=0;" parent="1" source="P7qVUv0zWzpbaVaUychk-39" target="P7qVUv0zWzpbaVaUychk-42" edge="1">
          <mxGeometry relative="1" as="geometry" />
        </mxCell>
        <mxCell id="P7qVUv0zWzpbaVaUychk-52" style="edgeStyle=orthogonalEdgeStyle;rounded=0;orthogonalLoop=1;jettySize=auto;html=1;exitX=1;exitY=0.75;exitDx=0;exitDy=0;entryX=0;entryY=0.5;entryDx=0;entryDy=0;" parent="1" source="P7qVUv0zWzpbaVaUychk-39" target="P7qVUv0zWzpbaVaUychk-44" edge="1">
          <mxGeometry relative="1" as="geometry" />
        </mxCell>
        <mxCell id="P7qVUv0zWzpbaVaUychk-53" style="edgeStyle=orthogonalEdgeStyle;rounded=0;orthogonalLoop=1;jettySize=auto;html=1;exitX=1;exitY=1;exitDx=0;exitDy=0;entryX=0;entryY=0.5;entryDx=0;entryDy=0;" parent="1" source="P7qVUv0zWzpbaVaUychk-39" target="P7qVUv0zWzpbaVaUychk-45" edge="1">
          <mxGeometry relative="1" as="geometry" />
        </mxCell>
        <mxCell id="P7qVUv0zWzpbaVaUychk-54" style="edgeStyle=orthogonalEdgeStyle;rounded=0;orthogonalLoop=1;jettySize=auto;html=1;exitX=0.75;exitY=1;exitDx=0;exitDy=0;entryX=0;entryY=0.5;entryDx=0;entryDy=0;" parent="1" source="P7qVUv0zWzpbaVaUychk-39" target="P7qVUv0zWzpbaVaUychk-46" edge="1">
          <mxGeometry relative="1" as="geometry" />
        </mxCell>
        <mxCell id="P7qVUv0zWzpbaVaUychk-55" style="edgeStyle=orthogonalEdgeStyle;rounded=0;orthogonalLoop=1;jettySize=auto;html=1;exitX=0.5;exitY=1;exitDx=0;exitDy=0;entryX=0;entryY=0.5;entryDx=0;entryDy=0;" parent="1" source="P7qVUv0zWzpbaVaUychk-39" target="P7qVUv0zWzpbaVaUychk-47" edge="1">
          <mxGeometry relative="1" as="geometry" />
        </mxCell>
        <mxCell id="P7qVUv0zWzpbaVaUychk-100" style="edgeStyle=orthogonalEdgeStyle;rounded=0;orthogonalLoop=1;jettySize=auto;html=1;exitX=0.25;exitY=0;exitDx=0;exitDy=0;entryX=0.5;entryY=1;entryDx=0;entryDy=0;" parent="1" source="P7qVUv0zWzpbaVaUychk-39" target="P7qVUv0zWzpbaVaUychk-98" edge="1">
          <mxGeometry relative="1" as="geometry" />
        </mxCell>
        <mxCell id="RcaxxR3kTo5iRy39veyw-5" style="edgeStyle=orthogonalEdgeStyle;rounded=0;orthogonalLoop=1;jettySize=auto;html=1;exitX=0.75;exitY=0;exitDx=0;exitDy=0;entryX=0;entryY=0.5;entryDx=0;entryDy=0;" parent="1" source="P7qVUv0zWzpbaVaUychk-39" target="P7qVUv0zWzpbaVaUychk-40" edge="1">
          <mxGeometry relative="1" as="geometry" />
        </mxCell>
        <mxCell id="P7qVUv0zWzpbaVaUychk-39" value="&lt;font style=&quot;font-size: 18px;&quot;&gt;Direccion&lt;/font&gt;" style="rounded=1;whiteSpace=wrap;html=1;fillColor=#1ba1e2;fontColor=#ffffff;strokeColor=#006EAF;" parent="1" vertex="1">
          <mxGeometry x="142.25" y="2690" width="160" height="80" as="geometry" />
        </mxCell>
        <mxCell id="P7qVUv0zWzpbaVaUychk-40" value="ID(CP)" style="rounded=1;whiteSpace=wrap;html=1;fontStyle=5;fillColor=#e3c800;fontColor=#000000;strokeColor=#B09500;" parent="1" vertex="1">
          <mxGeometry x="352.25" y="2535" width="140" height="50" as="geometry" />
        </mxCell>
        <mxCell id="P7qVUv0zWzpbaVaUychk-42" value="Calle" style="rounded=1;whiteSpace=wrap;html=1;fontStyle=0;fillColor=#e3c800;fontColor=#000000;strokeColor=#B09500;" parent="1" vertex="1">
          <mxGeometry x="352.25" y="2600" width="140" height="50" as="geometry" />
        </mxCell>
        <mxCell id="P7qVUv0zWzpbaVaUychk-43" value="Numero" style="rounded=1;whiteSpace=wrap;html=1;fontStyle=0;fillColor=#e3c800;fontColor=#000000;strokeColor=#B09500;" parent="1" vertex="1">
          <mxGeometry x="352.25" y="2670" width="140" height="50" as="geometry" />
        </mxCell>
        <mxCell id="P7qVUv0zWzpbaVaUychk-44" value="Comuna" style="rounded=1;whiteSpace=wrap;html=1;fontStyle=0;fillColor=#e3c800;fontColor=#000000;strokeColor=#B09500;" parent="1" vertex="1">
          <mxGeometry x="352.25" y="2740" width="140" height="50" as="geometry" />
        </mxCell>
        <mxCell id="P7qVUv0zWzpbaVaUychk-45" value="Ciudad" style="rounded=1;whiteSpace=wrap;html=1;fontStyle=0;fillColor=#e3c800;fontColor=#000000;strokeColor=#B09500;" parent="1" vertex="1">
          <mxGeometry x="352.25" y="2810" width="140" height="50" as="geometry" />
        </mxCell>
        <mxCell id="P7qVUv0zWzpbaVaUychk-46" value="Tipo" style="rounded=1;whiteSpace=wrap;html=1;fontStyle=0;fillColor=#e3c800;fontColor=#000000;strokeColor=#B09500;" parent="1" vertex="1">
          <mxGeometry x="352.25" y="2880" width="140" height="50" as="geometry" />
        </mxCell>
        <mxCell id="P7qVUv0zWzpbaVaUychk-47" value="Codigo postal" style="rounded=1;whiteSpace=wrap;html=1;fontStyle=0;fillColor=#e3c800;fontColor=#000000;strokeColor=#B09500;" parent="1" vertex="1">
          <mxGeometry x="352.25" y="2950" width="140" height="50" as="geometry" />
        </mxCell>
        <mxCell id="P7qVUv0zWzpbaVaUychk-57" style="edgeStyle=orthogonalEdgeStyle;rounded=0;orthogonalLoop=1;jettySize=auto;html=1;exitX=0;exitY=0;exitDx=0;exitDy=0;entryX=1;entryY=0.5;entryDx=0;entryDy=0;" parent="1" source="P7qVUv0zWzpbaVaUychk-63" target="P7qVUv0zWzpbaVaUychk-64" edge="1">
          <mxGeometry relative="1" as="geometry" />
        </mxCell>
        <mxCell id="P7qVUv0zWzpbaVaUychk-58" style="edgeStyle=orthogonalEdgeStyle;rounded=0;orthogonalLoop=1;jettySize=auto;html=1;exitX=0;exitY=0.25;exitDx=0;exitDy=0;entryX=1;entryY=0.5;entryDx=0;entryDy=0;" parent="1" source="P7qVUv0zWzpbaVaUychk-63" target="P7qVUv0zWzpbaVaUychk-65" edge="1">
          <mxGeometry relative="1" as="geometry" />
        </mxCell>
        <mxCell id="P7qVUv0zWzpbaVaUychk-59" style="edgeStyle=orthogonalEdgeStyle;rounded=0;orthogonalLoop=1;jettySize=auto;html=1;exitX=0;exitY=0.5;exitDx=0;exitDy=0;entryX=1;entryY=0.5;entryDx=0;entryDy=0;" parent="1" source="P7qVUv0zWzpbaVaUychk-63" target="P7qVUv0zWzpbaVaUychk-66" edge="1">
          <mxGeometry relative="1" as="geometry" />
        </mxCell>
        <mxCell id="P7qVUv0zWzpbaVaUychk-60" style="edgeStyle=orthogonalEdgeStyle;rounded=0;orthogonalLoop=1;jettySize=auto;html=1;exitX=0;exitY=0.75;exitDx=0;exitDy=0;entryX=1;entryY=0.5;entryDx=0;entryDy=0;" parent="1" source="P7qVUv0zWzpbaVaUychk-63" target="P7qVUv0zWzpbaVaUychk-67" edge="1">
          <mxGeometry relative="1" as="geometry" />
        </mxCell>
        <mxCell id="P7qVUv0zWzpbaVaUychk-61" style="edgeStyle=orthogonalEdgeStyle;rounded=0;orthogonalLoop=1;jettySize=auto;html=1;exitX=0;exitY=1;exitDx=0;exitDy=0;entryX=1;entryY=0.5;entryDx=0;entryDy=0;" parent="1" source="P7qVUv0zWzpbaVaUychk-63" target="P7qVUv0zWzpbaVaUychk-68" edge="1">
          <mxGeometry relative="1" as="geometry" />
        </mxCell>
        <mxCell id="P7qVUv0zWzpbaVaUychk-62" style="edgeStyle=orthogonalEdgeStyle;rounded=0;orthogonalLoop=1;jettySize=auto;html=1;exitX=0.25;exitY=1;exitDx=0;exitDy=0;entryX=1;entryY=0.5;entryDx=0;entryDy=0;" parent="1" source="P7qVUv0zWzpbaVaUychk-63" target="P7qVUv0zWzpbaVaUychk-69" edge="1">
          <mxGeometry relative="1" as="geometry" />
        </mxCell>
        <mxCell id="P7qVUv0zWzpbaVaUychk-167" style="edgeStyle=orthogonalEdgeStyle;rounded=0;orthogonalLoop=1;jettySize=auto;html=1;exitX=1;exitY=0.5;exitDx=0;exitDy=0;entryX=0;entryY=0.5;entryDx=0;entryDy=0;" parent="1" source="P7qVUv0zWzpbaVaUychk-63" target="P7qVUv0zWzpbaVaUychk-166" edge="1">
          <mxGeometry relative="1" as="geometry" />
        </mxCell>
        <mxCell id="RcaxxR3kTo5iRy39veyw-16" style="edgeStyle=orthogonalEdgeStyle;rounded=0;orthogonalLoop=1;jettySize=auto;html=1;exitX=1;exitY=1;exitDx=0;exitDy=0;entryX=0;entryY=0.5;entryDx=0;entryDy=0;" parent="1" source="P7qVUv0zWzpbaVaUychk-63" target="RcaxxR3kTo5iRy39veyw-14" edge="1">
          <mxGeometry relative="1" as="geometry" />
        </mxCell>
        <mxCell id="5W8zerc6QJjavdJs9ouR-9" style="edgeStyle=orthogonalEdgeStyle;rounded=0;orthogonalLoop=1;jettySize=auto;html=1;exitX=1;exitY=0.75;exitDx=0;exitDy=0;entryX=0;entryY=0.5;entryDx=0;entryDy=0;" edge="1" parent="1" source="P7qVUv0zWzpbaVaUychk-63" target="5W8zerc6QJjavdJs9ouR-8">
          <mxGeometry relative="1" as="geometry">
            <Array as="points">
              <mxPoint x="-50" y="956" />
              <mxPoint x="-50" y="1048" />
            </Array>
          </mxGeometry>
        </mxCell>
        <mxCell id="P7qVUv0zWzpbaVaUychk-63" value="&lt;font style=&quot;font-size: 18px;&quot;&gt;Productos&lt;/font&gt;" style="rounded=1;whiteSpace=wrap;html=1;fillColor=#1ba1e2;fontColor=#ffffff;strokeColor=#006EAF;" parent="1" vertex="1">
          <mxGeometry x="-240" y="896" width="160" height="80" as="geometry" />
        </mxCell>
        <mxCell id="P7qVUv0zWzpbaVaUychk-64" value="ID(CP)" style="rounded=1;whiteSpace=wrap;html=1;fontStyle=5;fillColor=#e3c800;fontColor=#000000;strokeColor=#B09500;shadow=0;" parent="1" vertex="1">
          <mxGeometry x="-430" y="771" width="140" height="50" as="geometry" />
        </mxCell>
        <mxCell id="P7qVUv0zWzpbaVaUychk-65" value="ID_Categoria(CF)" style="rounded=1;whiteSpace=wrap;html=1;fontStyle=1;fillColor=#e3c800;fontColor=#000000;strokeColor=#B09500;shadow=0;" parent="1" vertex="1">
          <mxGeometry x="-430" y="841" width="140" height="50" as="geometry" />
        </mxCell>
        <mxCell id="P7qVUv0zWzpbaVaUychk-66" value="RUT_Proeveedor(CF)" style="rounded=1;whiteSpace=wrap;html=1;fontStyle=1;fillColor=#e3c800;fontColor=#000000;strokeColor=#B09500;shadow=0;" parent="1" vertex="1">
          <mxGeometry x="-430" y="911" width="140" height="50" as="geometry" />
        </mxCell>
        <mxCell id="P7qVUv0zWzpbaVaUychk-67" value="Nombre" style="rounded=1;whiteSpace=wrap;html=1;fontStyle=0;fillColor=#e3c800;fontColor=#000000;strokeColor=#B09500;shadow=0;" parent="1" vertex="1">
          <mxGeometry x="-430" y="981" width="140" height="50" as="geometry" />
        </mxCell>
        <mxCell id="P7qVUv0zWzpbaVaUychk-68" value="Precio actual" style="rounded=1;whiteSpace=wrap;html=1;fontStyle=0;fillColor=#e3c800;fontColor=#000000;strokeColor=#B09500;shadow=0;" parent="1" vertex="1">
          <mxGeometry x="-430" y="1051" width="140" height="50" as="geometry" />
        </mxCell>
        <mxCell id="P7qVUv0zWzpbaVaUychk-69" value="Stock" style="rounded=1;whiteSpace=wrap;html=1;fontStyle=0;fillColor=#e3c800;fontColor=#000000;strokeColor=#B09500;shadow=0;" parent="1" vertex="1">
          <mxGeometry x="-430" y="1121" width="140" height="50" as="geometry" />
        </mxCell>
        <mxCell id="P7qVUv0zWzpbaVaUychk-76" style="edgeStyle=orthogonalEdgeStyle;rounded=0;orthogonalLoop=1;jettySize=auto;html=1;exitX=1;exitY=0.25;exitDx=0;exitDy=0;entryX=0;entryY=0.5;entryDx=0;entryDy=0;" parent="1" source="P7qVUv0zWzpbaVaUychk-72" target="P7qVUv0zWzpbaVaUychk-73" edge="1">
          <mxGeometry relative="1" as="geometry" />
        </mxCell>
        <mxCell id="P7qVUv0zWzpbaVaUychk-77" style="edgeStyle=orthogonalEdgeStyle;rounded=0;orthogonalLoop=1;jettySize=auto;html=1;exitX=1;exitY=0.5;exitDx=0;exitDy=0;entryX=0;entryY=0.5;entryDx=0;entryDy=0;" parent="1" source="P7qVUv0zWzpbaVaUychk-72" target="P7qVUv0zWzpbaVaUychk-74" edge="1">
          <mxGeometry relative="1" as="geometry" />
        </mxCell>
        <mxCell id="P7qVUv0zWzpbaVaUychk-78" style="edgeStyle=orthogonalEdgeStyle;rounded=0;orthogonalLoop=1;jettySize=auto;html=1;exitX=1;exitY=0.75;exitDx=0;exitDy=0;entryX=0;entryY=0.5;entryDx=0;entryDy=0;" parent="1" source="P7qVUv0zWzpbaVaUychk-72" target="P7qVUv0zWzpbaVaUychk-75" edge="1">
          <mxGeometry relative="1" as="geometry" />
        </mxCell>
        <mxCell id="P7qVUv0zWzpbaVaUychk-168" style="edgeStyle=orthogonalEdgeStyle;rounded=0;orthogonalLoop=1;jettySize=auto;html=1;exitX=0;exitY=0.5;exitDx=0;exitDy=0;entryX=1;entryY=0.5;entryDx=0;entryDy=0;" parent="1" source="P7qVUv0zWzpbaVaUychk-72" target="P7qVUv0zWzpbaVaUychk-166" edge="1">
          <mxGeometry relative="1" as="geometry" />
        </mxCell>
        <mxCell id="P7qVUv0zWzpbaVaUychk-72" value="&lt;font style=&quot;font-size: 18px;&quot;&gt;Categorias&lt;/font&gt;" style="rounded=1;whiteSpace=wrap;html=1;fillColor=#1ba1e2;fontColor=#ffffff;strokeColor=#006EAF;" parent="1" vertex="1">
          <mxGeometry x="170" y="896" width="160" height="80" as="geometry" />
        </mxCell>
        <mxCell id="P7qVUv0zWzpbaVaUychk-73" value="ID(CP)" style="rounded=1;whiteSpace=wrap;html=1;fontStyle=5;fillColor=#e3c800;fontColor=#000000;strokeColor=#B09500;" parent="1" vertex="1">
          <mxGeometry x="385" y="838.5" width="140" height="50" as="geometry" />
        </mxCell>
        <mxCell id="P7qVUv0zWzpbaVaUychk-74" value="Nombre" style="rounded=1;whiteSpace=wrap;html=1;fontStyle=0;fillColor=#e3c800;fontColor=#000000;strokeColor=#B09500;" parent="1" vertex="1">
          <mxGeometry x="385" y="911" width="140" height="50" as="geometry" />
        </mxCell>
        <mxCell id="P7qVUv0zWzpbaVaUychk-75" value="Descripción" style="rounded=1;whiteSpace=wrap;html=1;fontStyle=0;fillColor=#e3c800;fontColor=#000000;strokeColor=#B09500;" parent="1" vertex="1">
          <mxGeometry x="385" y="981" width="140" height="50" as="geometry" />
        </mxCell>
        <mxCell id="P7qVUv0zWzpbaVaUychk-79" style="edgeStyle=orthogonalEdgeStyle;rounded=0;orthogonalLoop=1;jettySize=auto;html=1;exitX=0;exitY=0;exitDx=0;exitDy=0;entryX=1;entryY=0.5;entryDx=0;entryDy=0;" parent="1" source="P7qVUv0zWzpbaVaUychk-85" target="P7qVUv0zWzpbaVaUychk-86" edge="1">
          <mxGeometry relative="1" as="geometry" />
        </mxCell>
        <mxCell id="P7qVUv0zWzpbaVaUychk-80" style="edgeStyle=orthogonalEdgeStyle;rounded=0;orthogonalLoop=1;jettySize=auto;html=1;exitX=0;exitY=0.25;exitDx=0;exitDy=0;entryX=1;entryY=0.5;entryDx=0;entryDy=0;" parent="1" source="P7qVUv0zWzpbaVaUychk-85" target="P7qVUv0zWzpbaVaUychk-87" edge="1">
          <mxGeometry relative="1" as="geometry" />
        </mxCell>
        <mxCell id="P7qVUv0zWzpbaVaUychk-81" style="edgeStyle=orthogonalEdgeStyle;rounded=0;orthogonalLoop=1;jettySize=auto;html=1;exitX=0;exitY=0.5;exitDx=0;exitDy=0;entryX=1;entryY=0.5;entryDx=0;entryDy=0;" parent="1" source="P7qVUv0zWzpbaVaUychk-85" target="P7qVUv0zWzpbaVaUychk-88" edge="1">
          <mxGeometry relative="1" as="geometry" />
        </mxCell>
        <mxCell id="P7qVUv0zWzpbaVaUychk-82" style="edgeStyle=orthogonalEdgeStyle;rounded=0;orthogonalLoop=1;jettySize=auto;html=1;exitX=0;exitY=0.75;exitDx=0;exitDy=0;entryX=1;entryY=0.5;entryDx=0;entryDy=0;" parent="1" source="P7qVUv0zWzpbaVaUychk-85" target="P7qVUv0zWzpbaVaUychk-89" edge="1">
          <mxGeometry relative="1" as="geometry" />
        </mxCell>
        <mxCell id="P7qVUv0zWzpbaVaUychk-83" style="edgeStyle=orthogonalEdgeStyle;rounded=0;orthogonalLoop=1;jettySize=auto;html=1;exitX=0;exitY=1;exitDx=0;exitDy=0;entryX=1;entryY=0.5;entryDx=0;entryDy=0;" parent="1" source="P7qVUv0zWzpbaVaUychk-85" target="P7qVUv0zWzpbaVaUychk-90" edge="1">
          <mxGeometry relative="1" as="geometry" />
        </mxCell>
        <mxCell id="P7qVUv0zWzpbaVaUychk-128" style="edgeStyle=orthogonalEdgeStyle;rounded=0;orthogonalLoop=1;jettySize=auto;html=1;exitX=1;exitY=0.5;exitDx=0;exitDy=0;entryX=0;entryY=0.5;entryDx=0;entryDy=0;" parent="1" source="P7qVUv0zWzpbaVaUychk-85" target="P7qVUv0zWzpbaVaUychk-126" edge="1">
          <mxGeometry relative="1" as="geometry" />
        </mxCell>
        <mxCell id="P7qVUv0zWzpbaVaUychk-85" value="&lt;font style=&quot;font-size: 18px;&quot;&gt;Ventas&lt;/font&gt;" style="rounded=1;whiteSpace=wrap;html=1;fillColor=#1ba1e2;fontColor=#ffffff;strokeColor=#006EAF;" parent="1" vertex="1">
          <mxGeometry x="-210" y="1500" width="160" height="80" as="geometry" />
        </mxCell>
        <mxCell id="P7qVUv0zWzpbaVaUychk-86" value="ID(CP)" style="rounded=1;whiteSpace=wrap;html=1;fontStyle=5;fillColor=#e3c800;fontColor=#000000;strokeColor=#B09500;shadow=0;" parent="1" vertex="1">
          <mxGeometry x="-400" y="1375" width="140" height="50" as="geometry" />
        </mxCell>
        <mxCell id="P7qVUv0zWzpbaVaUychk-87" value="Fecha" style="rounded=1;whiteSpace=wrap;html=1;fontStyle=0;fillColor=#e3c800;fontColor=#000000;strokeColor=#B09500;shadow=0;" parent="1" vertex="1">
          <mxGeometry x="-400" y="1445" width="140" height="50" as="geometry" />
        </mxCell>
        <mxCell id="P7qVUv0zWzpbaVaUychk-88" value="Coste total" style="rounded=1;whiteSpace=wrap;html=1;fontStyle=0;fillColor=#e3c800;fontColor=#000000;strokeColor=#B09500;shadow=0;" parent="1" vertex="1">
          <mxGeometry x="-400" y="1515" width="140" height="50" as="geometry" />
        </mxCell>
        <mxCell id="P7qVUv0zWzpbaVaUychk-89" value="Coste total" style="rounded=1;whiteSpace=wrap;html=1;fontStyle=0;fillColor=#e3c800;fontColor=#000000;strokeColor=#B09500;shadow=0;" parent="1" vertex="1">
          <mxGeometry x="-400" y="1585" width="140" height="50" as="geometry" />
        </mxCell>
        <mxCell id="P7qVUv0zWzpbaVaUychk-90" value="Estado" style="rounded=1;whiteSpace=wrap;html=1;fontStyle=0;fillColor=#e3c800;fontColor=#000000;strokeColor=#B09500;shadow=0;" parent="1" vertex="1">
          <mxGeometry x="-400" y="1655" width="140" height="50" as="geometry" />
        </mxCell>
        <mxCell id="P7qVUv0zWzpbaVaUychk-94" value="Método de pago" style="rounded=1;whiteSpace=wrap;html=1;fontStyle=0;fillColor=#e3c800;fontColor=#000000;strokeColor=#B09500;shadow=0;" parent="1" vertex="1">
          <mxGeometry x="-400" y="1585" width="140" height="50" as="geometry" />
        </mxCell>
        <mxCell id="P7qVUv0zWzpbaVaUychk-97" style="edgeStyle=orthogonalEdgeStyle;rounded=0;orthogonalLoop=1;jettySize=auto;html=1;exitX=0.5;exitY=0;exitDx=0;exitDy=0;entryX=0.25;entryY=1;entryDx=0;entryDy=0;" parent="1" source="P7qVUv0zWzpbaVaUychk-95" target="P7qVUv0zWzpbaVaUychk-12" edge="1">
          <mxGeometry relative="1" as="geometry" />
        </mxCell>
        <mxCell id="P7qVUv0zWzpbaVaUychk-95" value="1:M" style="rhombus;whiteSpace=wrap;html=1;fillColor=#a20025;fontColor=#ffffff;strokeColor=#6F0000;" parent="1" vertex="1">
          <mxGeometry x="-240" y="2495" width="60" height="100" as="geometry" />
        </mxCell>
        <mxCell id="P7qVUv0zWzpbaVaUychk-99" style="edgeStyle=orthogonalEdgeStyle;rounded=0;orthogonalLoop=1;jettySize=auto;html=1;exitX=0.5;exitY=0;exitDx=0;exitDy=0;entryX=0.75;entryY=1;entryDx=0;entryDy=0;" parent="1" source="P7qVUv0zWzpbaVaUychk-98" target="P7qVUv0zWzpbaVaUychk-12" edge="1">
          <mxGeometry relative="1" as="geometry" />
        </mxCell>
        <mxCell id="RcaxxR3kTo5iRy39veyw-2" style="edgeStyle=orthogonalEdgeStyle;rounded=0;orthogonalLoop=1;jettySize=auto;html=1;exitX=0;exitY=0.5;exitDx=0;exitDy=0;entryX=1;entryY=0.5;entryDx=0;entryDy=0;" parent="1" source="P7qVUv0zWzpbaVaUychk-98" target="RcaxxR3kTo5iRy39veyw-1" edge="1">
          <mxGeometry relative="1" as="geometry" />
        </mxCell>
        <mxCell id="P7qVUv0zWzpbaVaUychk-98" value="N:M" style="rhombus;whiteSpace=wrap;html=1;fillColor=#a20025;fontColor=#ffffff;strokeColor=#6F0000;" parent="1" vertex="1">
          <mxGeometry x="132.25" y="2510" width="60" height="100" as="geometry" />
        </mxCell>
        <mxCell id="P7qVUv0zWzpbaVaUychk-120" style="edgeStyle=orthogonalEdgeStyle;rounded=0;orthogonalLoop=1;jettySize=auto;html=1;exitX=1;exitY=0.5;exitDx=0;exitDy=0;entryX=0;entryY=0.5;entryDx=0;entryDy=0;" parent="1" source="P7qVUv0zWzpbaVaUychk-106" target="P7qVUv0zWzpbaVaUychk-115" edge="1">
          <mxGeometry relative="1" as="geometry" />
        </mxCell>
        <mxCell id="P7qVUv0zWzpbaVaUychk-121" style="edgeStyle=orthogonalEdgeStyle;rounded=0;orthogonalLoop=1;jettySize=auto;html=1;exitX=1;exitY=0.25;exitDx=0;exitDy=0;entryX=0;entryY=0.5;entryDx=0;entryDy=0;" parent="1" source="P7qVUv0zWzpbaVaUychk-106" target="P7qVUv0zWzpbaVaUychk-114" edge="1">
          <mxGeometry relative="1" as="geometry" />
        </mxCell>
        <mxCell id="P7qVUv0zWzpbaVaUychk-122" style="edgeStyle=orthogonalEdgeStyle;rounded=0;orthogonalLoop=1;jettySize=auto;html=1;exitX=1;exitY=0;exitDx=0;exitDy=0;entryX=0;entryY=0.5;entryDx=0;entryDy=0;" parent="1" source="P7qVUv0zWzpbaVaUychk-106" target="P7qVUv0zWzpbaVaUychk-113" edge="1">
          <mxGeometry relative="1" as="geometry" />
        </mxCell>
        <mxCell id="P7qVUv0zWzpbaVaUychk-123" style="edgeStyle=orthogonalEdgeStyle;rounded=0;orthogonalLoop=1;jettySize=auto;html=1;exitX=1;exitY=0.75;exitDx=0;exitDy=0;entryX=0;entryY=0.5;entryDx=0;entryDy=0;" parent="1" source="P7qVUv0zWzpbaVaUychk-106" target="P7qVUv0zWzpbaVaUychk-118" edge="1">
          <mxGeometry relative="1" as="geometry" />
        </mxCell>
        <mxCell id="P7qVUv0zWzpbaVaUychk-124" style="edgeStyle=orthogonalEdgeStyle;rounded=0;orthogonalLoop=1;jettySize=auto;html=1;exitX=1;exitY=1;exitDx=0;exitDy=0;entryX=0;entryY=0.5;entryDx=0;entryDy=0;" parent="1" source="P7qVUv0zWzpbaVaUychk-106" target="P7qVUv0zWzpbaVaUychk-117" edge="1">
          <mxGeometry relative="1" as="geometry" />
        </mxCell>
        <mxCell id="P7qVUv0zWzpbaVaUychk-127" style="edgeStyle=orthogonalEdgeStyle;rounded=0;orthogonalLoop=1;jettySize=auto;html=1;exitX=0;exitY=0.5;exitDx=0;exitDy=0;entryX=1;entryY=0.5;entryDx=0;entryDy=0;" parent="1" source="P7qVUv0zWzpbaVaUychk-106" target="P7qVUv0zWzpbaVaUychk-126" edge="1">
          <mxGeometry relative="1" as="geometry" />
        </mxCell>
        <mxCell id="P7qVUv0zWzpbaVaUychk-106" value="&lt;font style=&quot;font-size: 18px;&quot;&gt;DetalleVenta&lt;/font&gt;" style="rounded=1;whiteSpace=wrap;html=1;fillColor=#1ba1e2;fontColor=#ffffff;strokeColor=#006EAF;" parent="1" vertex="1">
          <mxGeometry x="190" y="1500" width="160" height="80" as="geometry" />
        </mxCell>
        <mxCell id="P7qVUv0zWzpbaVaUychk-113" value="ID(CP)" style="rounded=1;whiteSpace=wrap;html=1;fontStyle=5;fillColor=#e3c800;fontColor=#000000;strokeColor=#B09500;shadow=0;" parent="1" vertex="1">
          <mxGeometry x="415" y="1375" width="140" height="50" as="geometry" />
        </mxCell>
        <mxCell id="P7qVUv0zWzpbaVaUychk-114" value="ID_Venta(CF)" style="rounded=1;whiteSpace=wrap;html=1;fontStyle=1;fillColor=#e3c800;fontColor=#000000;strokeColor=#B09500;shadow=0;" parent="1" vertex="1">
          <mxGeometry x="415" y="1445" width="140" height="50" as="geometry" />
        </mxCell>
        <mxCell id="P7qVUv0zWzpbaVaUychk-115" value="ID_Producto(CF)" style="rounded=1;whiteSpace=wrap;html=1;fontStyle=1;fillColor=#e3c800;fontColor=#000000;strokeColor=#B09500;shadow=0;" parent="1" vertex="1">
          <mxGeometry x="415" y="1515" width="140" height="50" as="geometry" />
        </mxCell>
        <mxCell id="P7qVUv0zWzpbaVaUychk-116" value="Coste total" style="rounded=1;whiteSpace=wrap;html=1;fontStyle=0;fillColor=#e3c800;fontColor=#000000;strokeColor=#B09500;shadow=0;" parent="1" vertex="1">
          <mxGeometry x="415" y="1585" width="140" height="50" as="geometry" />
        </mxCell>
        <mxCell id="P7qVUv0zWzpbaVaUychk-117" value="Cantidad" style="rounded=1;whiteSpace=wrap;html=1;fontStyle=0;fillColor=#e3c800;fontColor=#000000;strokeColor=#B09500;shadow=0;" parent="1" vertex="1">
          <mxGeometry x="415" y="1655" width="140" height="50" as="geometry" />
        </mxCell>
        <mxCell id="P7qVUv0zWzpbaVaUychk-118" value="MontoTotal" style="rounded=1;whiteSpace=wrap;html=1;fontStyle=0;fillColor=#e3c800;fontColor=#000000;strokeColor=#B09500;shadow=0;" parent="1" vertex="1">
          <mxGeometry x="415" y="1585" width="140" height="50" as="geometry" />
        </mxCell>
        <mxCell id="P7qVUv0zWzpbaVaUychk-126" value="1:M" style="rhombus;whiteSpace=wrap;html=1;fillColor=#a20025;fontColor=#ffffff;strokeColor=#6F0000;" parent="1" vertex="1">
          <mxGeometry x="20" y="1512.5" width="94.5" height="55" as="geometry" />
        </mxCell>
        <mxCell id="P7qVUv0zWzpbaVaUychk-134" style="edgeStyle=orthogonalEdgeStyle;rounded=0;orthogonalLoop=1;jettySize=auto;html=1;exitX=1;exitY=0.5;exitDx=0;exitDy=0;entryX=0;entryY=0.5;entryDx=0;entryDy=0;" parent="1" source="P7qVUv0zWzpbaVaUychk-135" target="P7qVUv0zWzpbaVaUychk-157" edge="1">
          <mxGeometry relative="1" as="geometry" />
        </mxCell>
        <mxCell id="P7qVUv0zWzpbaVaUychk-162" style="edgeStyle=orthogonalEdgeStyle;rounded=0;orthogonalLoop=1;jettySize=auto;html=1;exitX=0;exitY=0.25;exitDx=0;exitDy=0;entryX=1;entryY=0.5;entryDx=0;entryDy=0;" parent="1" source="P7qVUv0zWzpbaVaUychk-135" target="P7qVUv0zWzpbaVaUychk-136" edge="1">
          <mxGeometry relative="1" as="geometry" />
        </mxCell>
        <mxCell id="P7qVUv0zWzpbaVaUychk-163" style="edgeStyle=orthogonalEdgeStyle;rounded=0;orthogonalLoop=1;jettySize=auto;html=1;exitX=0;exitY=0.5;exitDx=0;exitDy=0;entryX=1;entryY=0.5;entryDx=0;entryDy=0;" parent="1" source="P7qVUv0zWzpbaVaUychk-135" target="P7qVUv0zWzpbaVaUychk-137" edge="1">
          <mxGeometry relative="1" as="geometry" />
        </mxCell>
        <mxCell id="P7qVUv0zWzpbaVaUychk-165" style="edgeStyle=orthogonalEdgeStyle;rounded=0;orthogonalLoop=1;jettySize=auto;html=1;exitX=0;exitY=0.75;exitDx=0;exitDy=0;entryX=1;entryY=0.5;entryDx=0;entryDy=0;" parent="1" source="P7qVUv0zWzpbaVaUychk-135" target="P7qVUv0zWzpbaVaUychk-138" edge="1">
          <mxGeometry relative="1" as="geometry" />
        </mxCell>
        <mxCell id="RcaxxR3kTo5iRy39veyw-9" style="edgeStyle=orthogonalEdgeStyle;rounded=0;orthogonalLoop=1;jettySize=auto;html=1;exitX=0.5;exitY=0;exitDx=0;exitDy=0;entryX=0.5;entryY=1;entryDx=0;entryDy=0;" parent="1" source="P7qVUv0zWzpbaVaUychk-135" target="RcaxxR3kTo5iRy39veyw-8" edge="1">
          <mxGeometry relative="1" as="geometry" />
        </mxCell>
        <mxCell id="5W8zerc6QJjavdJs9ouR-3" style="edgeStyle=orthogonalEdgeStyle;rounded=0;orthogonalLoop=1;jettySize=auto;html=1;exitX=0.25;exitY=1;exitDx=0;exitDy=0;entryX=1;entryY=0.5;entryDx=0;entryDy=0;" edge="1" parent="1" source="P7qVUv0zWzpbaVaUychk-135" target="5W8zerc6QJjavdJs9ouR-2">
          <mxGeometry relative="1" as="geometry" />
        </mxCell>
        <mxCell id="P7qVUv0zWzpbaVaUychk-135" value="&lt;font style=&quot;font-size: 18px;&quot;&gt;Cesta&lt;/font&gt;" style="rounded=1;whiteSpace=wrap;html=1;fillColor=#1ba1e2;fontColor=#ffffff;strokeColor=#006EAF;" parent="1" vertex="1">
          <mxGeometry x="-210" y="1985" width="160" height="80" as="geometry" />
        </mxCell>
        <mxCell id="P7qVUv0zWzpbaVaUychk-136" value="ID(CP)" style="rounded=1;whiteSpace=wrap;html=1;fontStyle=5;fillColor=#e3c800;fontColor=#000000;strokeColor=#B09500;shadow=0;" parent="1" vertex="1">
          <mxGeometry x="-400" y="1930" width="140" height="50" as="geometry" />
        </mxCell>
        <mxCell id="P7qVUv0zWzpbaVaUychk-137" value="RUT_Cliente(CF)" style="rounded=1;whiteSpace=wrap;html=1;fontStyle=1;fillColor=#e3c800;fontColor=#000000;strokeColor=#B09500;shadow=0;" parent="1" vertex="1">
          <mxGeometry x="-400" y="2000" width="140" height="50" as="geometry" />
        </mxCell>
        <mxCell id="P7qVUv0zWzpbaVaUychk-138" value="Fecha" style="rounded=1;whiteSpace=wrap;html=1;fontStyle=0;fillColor=#e3c800;fontColor=#000000;strokeColor=#B09500;shadow=0;" parent="1" vertex="1">
          <mxGeometry x="-400" y="2070" width="140" height="50" as="geometry" />
        </mxCell>
        <mxCell id="P7qVUv0zWzpbaVaUychk-148" style="edgeStyle=orthogonalEdgeStyle;rounded=0;orthogonalLoop=1;jettySize=auto;html=1;exitX=0;exitY=0.5;exitDx=0;exitDy=0;entryX=1;entryY=0.5;entryDx=0;entryDy=0;" parent="1" source="P7qVUv0zWzpbaVaUychk-149" target="P7qVUv0zWzpbaVaUychk-157" edge="1">
          <mxGeometry relative="1" as="geometry" />
        </mxCell>
        <mxCell id="P7qVUv0zWzpbaVaUychk-158" style="edgeStyle=orthogonalEdgeStyle;rounded=0;orthogonalLoop=1;jettySize=auto;html=1;exitX=1;exitY=0;exitDx=0;exitDy=0;entryX=0;entryY=0.5;entryDx=0;entryDy=0;" parent="1" source="P7qVUv0zWzpbaVaUychk-149" target="P7qVUv0zWzpbaVaUychk-150" edge="1">
          <mxGeometry relative="1" as="geometry" />
        </mxCell>
        <mxCell id="P7qVUv0zWzpbaVaUychk-159" style="edgeStyle=orthogonalEdgeStyle;rounded=0;orthogonalLoop=1;jettySize=auto;html=1;exitX=1;exitY=0.25;exitDx=0;exitDy=0;entryX=0;entryY=0.5;entryDx=0;entryDy=0;" parent="1" source="P7qVUv0zWzpbaVaUychk-149" target="P7qVUv0zWzpbaVaUychk-151" edge="1">
          <mxGeometry relative="1" as="geometry" />
        </mxCell>
        <mxCell id="P7qVUv0zWzpbaVaUychk-160" style="edgeStyle=orthogonalEdgeStyle;rounded=0;orthogonalLoop=1;jettySize=auto;html=1;exitX=1;exitY=0.75;exitDx=0;exitDy=0;entryX=0;entryY=0.5;entryDx=0;entryDy=0;" parent="1" source="P7qVUv0zWzpbaVaUychk-149" target="P7qVUv0zWzpbaVaUychk-152" edge="1">
          <mxGeometry relative="1" as="geometry" />
        </mxCell>
        <mxCell id="P7qVUv0zWzpbaVaUychk-161" style="edgeStyle=orthogonalEdgeStyle;rounded=0;orthogonalLoop=1;jettySize=auto;html=1;exitX=1;exitY=1;exitDx=0;exitDy=0;entryX=0;entryY=0.5;entryDx=0;entryDy=0;" parent="1" source="P7qVUv0zWzpbaVaUychk-149" target="P7qVUv0zWzpbaVaUychk-155" edge="1">
          <mxGeometry relative="1" as="geometry" />
        </mxCell>
        <mxCell id="5W8zerc6QJjavdJs9ouR-7" style="edgeStyle=orthogonalEdgeStyle;rounded=0;orthogonalLoop=1;jettySize=auto;html=1;exitX=0.75;exitY=1;exitDx=0;exitDy=0;entryX=0;entryY=0.5;entryDx=0;entryDy=0;" edge="1" parent="1" source="P7qVUv0zWzpbaVaUychk-149" target="5W8zerc6QJjavdJs9ouR-6">
          <mxGeometry relative="1" as="geometry" />
        </mxCell>
        <mxCell id="P7qVUv0zWzpbaVaUychk-149" value="&lt;font style=&quot;font-size: 18px;&quot;&gt;DetalleVenta&lt;/font&gt;" style="rounded=1;whiteSpace=wrap;html=1;fillColor=#1ba1e2;fontColor=#ffffff;strokeColor=#006EAF;" parent="1" vertex="1">
          <mxGeometry x="200" y="1985" width="160" height="80" as="geometry" />
        </mxCell>
        <mxCell id="P7qVUv0zWzpbaVaUychk-150" value="ID(CP)" style="rounded=1;whiteSpace=wrap;html=1;fontStyle=5;fillColor=#e3c800;fontColor=#000000;strokeColor=#B09500;shadow=0;" parent="1" vertex="1">
          <mxGeometry x="415" y="1895" width="140" height="50" as="geometry" />
        </mxCell>
        <mxCell id="P7qVUv0zWzpbaVaUychk-151" value="ID_Cesta(CF)" style="rounded=1;whiteSpace=wrap;html=1;fontStyle=1;fillColor=#e3c800;fontColor=#000000;strokeColor=#B09500;shadow=0;" parent="1" vertex="1">
          <mxGeometry x="415" y="1965" width="140" height="50" as="geometry" />
        </mxCell>
        <mxCell id="P7qVUv0zWzpbaVaUychk-152" value="ID_Producto(CF)" style="rounded=1;whiteSpace=wrap;html=1;fontStyle=1;fillColor=#e3c800;fontColor=#000000;strokeColor=#B09500;shadow=0;" parent="1" vertex="1">
          <mxGeometry x="415" y="2035" width="140" height="50" as="geometry" />
        </mxCell>
        <mxCell id="P7qVUv0zWzpbaVaUychk-153" value="Coste total" style="rounded=1;whiteSpace=wrap;html=1;fontStyle=0;fillColor=#e3c800;fontColor=#000000;strokeColor=#B09500;shadow=0;" parent="1" vertex="1">
          <mxGeometry x="415" y="2105" width="140" height="50" as="geometry" />
        </mxCell>
        <mxCell id="P7qVUv0zWzpbaVaUychk-155" value="Cantidad" style="rounded=1;whiteSpace=wrap;html=1;fontStyle=0;fillColor=#e3c800;fontColor=#000000;strokeColor=#B09500;shadow=0;" parent="1" vertex="1">
          <mxGeometry x="415" y="2105" width="140" height="50" as="geometry" />
        </mxCell>
        <mxCell id="P7qVUv0zWzpbaVaUychk-157" value="1:M" style="rhombus;whiteSpace=wrap;html=1;fillColor=#a20025;fontColor=#ffffff;strokeColor=#6F0000;" parent="1" vertex="1">
          <mxGeometry x="30" y="1997.5" width="94.5" height="55" as="geometry" />
        </mxCell>
        <mxCell id="P7qVUv0zWzpbaVaUychk-166" value="1:1" style="rhombus;whiteSpace=wrap;html=1;fillColor=#a20025;fontColor=#ffffff;strokeColor=#6F0000;" parent="1" vertex="1">
          <mxGeometry x="5" y="908.5" width="94.5" height="55" as="geometry" />
        </mxCell>
        <mxCell id="RcaxxR3kTo5iRy39veyw-6" style="edgeStyle=orthogonalEdgeStyle;rounded=0;orthogonalLoop=1;jettySize=auto;html=1;exitX=0;exitY=1;exitDx=0;exitDy=0;entryX=0;entryY=0.5;entryDx=0;entryDy=0;" parent="1" source="RcaxxR3kTo5iRy39veyw-1" target="RcaxxR3kTo5iRy39veyw-3" edge="1">
          <mxGeometry relative="1" as="geometry" />
        </mxCell>
        <mxCell id="RcaxxR3kTo5iRy39veyw-7" style="edgeStyle=orthogonalEdgeStyle;rounded=0;orthogonalLoop=1;jettySize=auto;html=1;exitX=0;exitY=1;exitDx=0;exitDy=0;entryX=0;entryY=0.5;entryDx=0;entryDy=0;" parent="1" source="RcaxxR3kTo5iRy39veyw-1" target="RcaxxR3kTo5iRy39veyw-4" edge="1">
          <mxGeometry relative="1" as="geometry" />
        </mxCell>
        <mxCell id="RcaxxR3kTo5iRy39veyw-1" value="&lt;font style=&quot;font-size: 18px;&quot;&gt;ClientesDireccion&lt;/font&gt;" style="rounded=1;whiteSpace=wrap;html=1;fillColor=#6a00ff;fontColor=#ffffff;strokeColor=#3700CC;" parent="1" vertex="1">
          <mxGeometry x="-100" y="2520" width="160" height="80" as="geometry" />
        </mxCell>
        <mxCell id="RcaxxR3kTo5iRy39veyw-3" value="RUT_Cliente(CF)" style="rounded=1;whiteSpace=wrap;html=1;fontStyle=1;fillColor=#e3c800;fontColor=#000000;strokeColor=#B09500;" parent="1" vertex="1">
          <mxGeometry x="-80" y="2620" width="140" height="50" as="geometry" />
        </mxCell>
        <mxCell id="RcaxxR3kTo5iRy39veyw-4" value="ID_Direccion(CF)" style="rounded=1;whiteSpace=wrap;html=1;fontStyle=1;fillColor=#e3c800;fontColor=#000000;strokeColor=#B09500;" parent="1" vertex="1">
          <mxGeometry x="-80" y="2685" width="140" height="50" as="geometry" />
        </mxCell>
        <mxCell id="RcaxxR3kTo5iRy39veyw-10" style="edgeStyle=orthogonalEdgeStyle;rounded=0;orthogonalLoop=1;jettySize=auto;html=1;exitX=0.5;exitY=0;exitDx=0;exitDy=0;entryX=0.5;entryY=1;entryDx=0;entryDy=0;" parent="1" source="RcaxxR3kTo5iRy39veyw-8" target="P7qVUv0zWzpbaVaUychk-85" edge="1">
          <mxGeometry relative="1" as="geometry" />
        </mxCell>
        <mxCell id="RcaxxR3kTo5iRy39veyw-8" value="1:1" style="rhombus;whiteSpace=wrap;html=1;fillColor=#a20025;fontColor=#ffffff;strokeColor=#6F0000;" parent="1" vertex="1">
          <mxGeometry x="-160" y="1730" width="60" height="100" as="geometry" />
        </mxCell>
        <mxCell id="RcaxxR3kTo5iRy39veyw-12" style="edgeStyle=orthogonalEdgeStyle;rounded=0;orthogonalLoop=1;jettySize=auto;html=1;exitX=0.5;exitY=0;exitDx=0;exitDy=0;entryX=0.5;entryY=1;entryDx=0;entryDy=0;" parent="1" source="RcaxxR3kTo5iRy39veyw-11" edge="1">
          <mxGeometry relative="1" as="geometry">
            <mxPoint x="-90" y="2065" as="targetPoint" />
          </mxGeometry>
        </mxCell>
        <mxCell id="RcaxxR3kTo5iRy39veyw-11" value="1:M" style="rhombus;whiteSpace=wrap;html=1;fillColor=#a20025;fontColor=#ffffff;strokeColor=#6F0000;" parent="1" vertex="1">
          <mxGeometry x="-120" y="2120" width="60" height="100" as="geometry" />
        </mxCell>
        <mxCell id="RcaxxR3kTo5iRy39veyw-21" style="edgeStyle=orthogonalEdgeStyle;rounded=0;orthogonalLoop=1;jettySize=auto;html=1;exitX=0.5;exitY=1;exitDx=0;exitDy=0;entryX=1;entryY=0.5;entryDx=0;entryDy=0;" parent="1" source="RcaxxR3kTo5iRy39veyw-14" target="RcaxxR3kTo5iRy39veyw-18" edge="1">
          <mxGeometry relative="1" as="geometry" />
        </mxCell>
        <mxCell id="w1jz1WoTq3xVSQIowJVK-2" style="edgeStyle=orthogonalEdgeStyle;rounded=0;orthogonalLoop=1;jettySize=auto;html=1;exitX=1;exitY=0.5;exitDx=0;exitDy=0;entryX=0.5;entryY=0;entryDx=0;entryDy=0;" parent="1" source="5W8zerc6QJjavdJs9ouR-8" target="P7qVUv0zWzpbaVaUychk-149" edge="1">
          <mxGeometry relative="1" as="geometry">
            <Array as="points">
              <mxPoint x="649" y="1840" />
              <mxPoint x="280" y="1840" />
            </Array>
          </mxGeometry>
        </mxCell>
        <mxCell id="w1jz1WoTq3xVSQIowJVK-3" style="edgeStyle=orthogonalEdgeStyle;rounded=0;orthogonalLoop=1;jettySize=auto;html=1;exitX=1;exitY=0.5;exitDx=0;exitDy=0;entryX=0.75;entryY=0;entryDx=0;entryDy=0;" parent="1" source="RcaxxR3kTo5iRy39veyw-14" target="P7qVUv0zWzpbaVaUychk-106" edge="1">
          <mxGeometry relative="1" as="geometry" />
        </mxCell>
        <mxCell id="RcaxxR3kTo5iRy39veyw-14" value="N:M" style="rhombus;whiteSpace=wrap;html=1;fillColor=#a20025;fontColor=#ffffff;strokeColor=#6F0000;" parent="1" vertex="1">
          <mxGeometry x="117" y="1066" width="94.5" height="55" as="geometry" />
        </mxCell>
        <mxCell id="RcaxxR3kTo5iRy39veyw-23" style="edgeStyle=orthogonalEdgeStyle;rounded=0;orthogonalLoop=1;jettySize=auto;html=1;exitX=0;exitY=1;exitDx=0;exitDy=0;entryX=0;entryY=0.5;entryDx=0;entryDy=0;" parent="1" source="RcaxxR3kTo5iRy39veyw-18" target="RcaxxR3kTo5iRy39veyw-20" edge="1">
          <mxGeometry relative="1" as="geometry" />
        </mxCell>
        <mxCell id="5W8zerc6QJjavdJs9ouR-17" style="edgeStyle=orthogonalEdgeStyle;rounded=0;orthogonalLoop=1;jettySize=auto;html=1;exitX=0;exitY=1;exitDx=0;exitDy=0;entryX=0;entryY=0.5;entryDx=0;entryDy=0;" edge="1" parent="1" source="RcaxxR3kTo5iRy39veyw-18" target="5W8zerc6QJjavdJs9ouR-1">
          <mxGeometry relative="1" as="geometry" />
        </mxCell>
        <mxCell id="RcaxxR3kTo5iRy39veyw-18" value="&lt;font style=&quot;font-size: 18px;&quot;&gt;ProductosVenta&lt;/font&gt;" style="rounded=1;whiteSpace=wrap;html=1;fillColor=#6a00ff;fontColor=#ffffff;strokeColor=#3700CC;" parent="1" vertex="1">
          <mxGeometry x="-15" y="1140" width="160" height="80" as="geometry" />
        </mxCell>
        <mxCell id="RcaxxR3kTo5iRy39veyw-20" value="ID_DetalleVenta(CF)" style="rounded=1;whiteSpace=wrap;html=1;fontStyle=1;fillColor=#e3c800;fontColor=#000000;strokeColor=#B09500;" parent="1" vertex="1">
          <mxGeometry x="5" y="1235" width="140" height="50" as="geometry" />
        </mxCell>
        <mxCell id="RcaxxR3kTo5iRy39veyw-26" style="edgeStyle=orthogonalEdgeStyle;rounded=0;orthogonalLoop=1;jettySize=auto;html=1;exitX=0.5;exitY=1;exitDx=0;exitDy=0;entryX=0.5;entryY=0;entryDx=0;entryDy=0;" parent="1" source="RcaxxR3kTo5iRy39veyw-24" target="P7qVUv0zWzpbaVaUychk-63" edge="1">
          <mxGeometry relative="1" as="geometry" />
        </mxCell>
        <mxCell id="RcaxxR3kTo5iRy39veyw-24" value="1:M" style="rhombus;whiteSpace=wrap;html=1;fillColor=#a20025;fontColor=#ffffff;strokeColor=#6F0000;" parent="1" vertex="1">
          <mxGeometry x="-190" y="602.5" width="60" height="100" as="geometry" />
        </mxCell>
        <mxCell id="5W8zerc6QJjavdJs9ouR-1" value="ID_Producto(CF)" style="rounded=1;whiteSpace=wrap;html=1;fontStyle=1;fillColor=#e3c800;fontColor=#000000;strokeColor=#B09500;" vertex="1" parent="1">
          <mxGeometry x="5" y="1300" width="140" height="50" as="geometry" />
        </mxCell>
        <mxCell id="5W8zerc6QJjavdJs9ouR-2" value="Estado" style="rounded=1;whiteSpace=wrap;html=1;fontStyle=0;fillColor=#e3c800;fontColor=#000000;strokeColor=#B09500;shadow=0;" vertex="1" parent="1">
          <mxGeometry x="-400" y="2140" width="140" height="50" as="geometry" />
        </mxCell>
        <mxCell id="5W8zerc6QJjavdJs9ouR-6" value="MontoTotal" style="rounded=1;whiteSpace=wrap;html=1;fontStyle=0;fillColor=#e3c800;fontColor=#000000;strokeColor=#B09500;shadow=0;" vertex="1" parent="1">
          <mxGeometry x="415" y="2170" width="140" height="50" as="geometry" />
        </mxCell>
        <mxCell id="5W8zerc6QJjavdJs9ouR-16" style="edgeStyle=orthogonalEdgeStyle;rounded=0;orthogonalLoop=1;jettySize=auto;html=1;exitX=1;exitY=0.5;exitDx=0;exitDy=0;entryX=0;entryY=0.25;entryDx=0;entryDy=0;" edge="1" parent="1" source="5W8zerc6QJjavdJs9ouR-8" target="5W8zerc6QJjavdJs9ouR-12">
          <mxGeometry relative="1" as="geometry" />
        </mxCell>
        <mxCell id="5W8zerc6QJjavdJs9ouR-8" value="N:M" style="rhombus;whiteSpace=wrap;html=1;fillColor=#a20025;fontColor=#ffffff;strokeColor=#6F0000;" vertex="1" parent="1">
          <mxGeometry x="555" y="1020" width="94.5" height="55" as="geometry" />
        </mxCell>
        <mxCell id="5W8zerc6QJjavdJs9ouR-10" style="edgeStyle=orthogonalEdgeStyle;rounded=0;orthogonalLoop=1;jettySize=auto;html=1;exitX=0;exitY=1;exitDx=0;exitDy=0;entryX=0;entryY=0.5;entryDx=0;entryDy=0;" edge="1" source="5W8zerc6QJjavdJs9ouR-12" target="5W8zerc6QJjavdJs9ouR-13" parent="1">
          <mxGeometry relative="1" as="geometry" />
        </mxCell>
        <mxCell id="5W8zerc6QJjavdJs9ouR-11" style="edgeStyle=orthogonalEdgeStyle;rounded=0;orthogonalLoop=1;jettySize=auto;html=1;exitX=0;exitY=1;exitDx=0;exitDy=0;entryX=0;entryY=0.5;entryDx=0;entryDy=0;" edge="1" source="5W8zerc6QJjavdJs9ouR-12" target="5W8zerc6QJjavdJs9ouR-14" parent="1">
          <mxGeometry relative="1" as="geometry" />
        </mxCell>
        <mxCell id="5W8zerc6QJjavdJs9ouR-12" value="&lt;font style=&quot;font-size: 18px;&quot;&gt;ProductosCesta&lt;/font&gt;" style="rounded=1;whiteSpace=wrap;html=1;fillColor=#6a00ff;fontColor=#ffffff;strokeColor=#3700CC;" vertex="1" parent="1">
          <mxGeometry x="720" y="1027" width="160" height="80" as="geometry" />
        </mxCell>
        <mxCell id="5W8zerc6QJjavdJs9ouR-13" value="ID_Producto(CF)" style="rounded=1;whiteSpace=wrap;html=1;fontStyle=1;fillColor=#e3c800;fontColor=#000000;strokeColor=#B09500;" vertex="1" parent="1">
          <mxGeometry x="740" y="1127" width="140" height="50" as="geometry" />
        </mxCell>
        <mxCell id="5W8zerc6QJjavdJs9ouR-14" value="ID_DetalleCesta(CF)" style="rounded=1;whiteSpace=wrap;html=1;fontStyle=1;fillColor=#e3c800;fontColor=#000000;strokeColor=#B09500;" vertex="1" parent="1">
          <mxGeometry x="740" y="1192" width="140" height="50" as="geometry" />
        </mxCell>
      </root>
    </mxGraphModel>
  </diagram>
</mxfile>
